<svg xmlns="http://www.w3.org/2000/svg" width="512" height="512" viewBox="0 0 512 512">
  <defs>
    <linearGradient id="grad1" x1="0%" y1="0%" x2="100%" y2="100%">
      <stop offset="0%" style="stop-color:#22d3ee"/>
      <stop offset="50%" style="stop-color:#06b6d4"/>
      <stop offset="100%" style="stop-color:#0891b2"/>
    </linearGradient>
    <linearGradient id="grad2" x1="0%" y1="100%" x2="100%" y2="0%">
      <stop offset="0%" style="stop-color:#0891b2"/>
      <stop offset="100%" style="stop-color:#22d3ee"/>
    </linearGradient>
    <filter id="glow" x="-50%" y="-50%" width="200%" height="200%">
      <feGaussianBlur stdDeviation="8" result="blur"/>
      <feMerge>
        <feMergeNode in="blur"/>
        <feMergeNode in="SourceGraphic"/>
      </feMerge>
    </filter>
    <filter id="innerShadow" x="-50%" y="-50%" width="200%" height="200%">
      <feOffset dx="0" dy="4"/>
      <feGaussianBlur stdDeviation="4" result="blur"/>
      <feComposite in2="SourceAlpha" operator="arithmetic" k2="-1" k3="1"/>
      <feColorMatrix type="matrix" values="0 0 0 0 0  0 0 0 0 0  0 0 0 0 0  0 0 0 0.3 0"/>
      <feBlend in2="SourceGraphic"/>
    </filter>
  </defs>

  <!-- Background with subtle gradient -->
  <rect width="512" height="512" rx="108" fill="#0a0a0b"/>
  <rect width="512" height="512" rx="108" fill="url(#grad1)" opacity="0.05"/>

  <!-- Outer ring - represents the workflow cycle -->
  <circle cx="256" cy="256" r="160" fill="none" stroke="url(#grad1)" stroke-width="12" opacity="0.3"/>

  <!-- Flow arrows around the ring -->
  <g opacity="0.6">
    <!-- Top arrow -->
    <path d="M256 80 L276 110 L256 100 L236 110 Z" fill="url(#grad1)"/>
    <!-- Right arrow -->
    <path d="M432 256 L402 236 L412 256 L402 276 Z" fill="url(#grad1)"/>
    <!-- Bottom arrow -->
    <path d="M256 432 L236 402 L256 412 L276 402 Z" fill="url(#grad1)"/>
    <!-- Left arrow -->
    <path d="M80 256 L110 276 L100 256 L110 236 Z" fill="url(#grad1)"/>
  </g>

  <!-- Central play/automation symbol -->
  <g filter="url(#glow)">
    <!-- Hexagonal base -->
    <path d="M256 140 L356 198 L356 314 L256 372 L156 314 L156 198 Z"
          fill="#0a0a0b" stroke="url(#grad1)" stroke-width="3"/>

    <!-- Inner hexagon -->
    <path d="M256 170 L330 213 L330 299 L256 342 L182 299 L182 213 Z"
          fill="url(#grad1)" opacity="0.15"/>

    <!-- Play triangle with flow lines -->
    <g transform="translate(256, 256)">
      <!-- Main play triangle -->
      <path d="M-45 -55 L55 0 L-45 55 Z" fill="url(#grad1)" filter="url(#innerShadow)"/>

      <!-- Flow lines inside triangle -->
      <path d="M-25 -30 L25 0 L-25 30" fill="none" stroke="#0a0a0b" stroke-width="4" opacity="0.3"/>
      <path d="M-35 -20 L5 0 L-35 20" fill="none" stroke="#0a0a0b" stroke-width="3" opacity="0.2"/>
    </g>
  </g>

  <!-- Connecting dots - workflow nodes -->
  <g fill="url(#grad1)">
    <circle cx="180" cy="180" r="10" opacity="0.8"/>
    <circle cx="332" cy="180" r="10" opacity="0.8"/>
    <circle cx="180" cy="332" r="10" opacity="0.8"/>
    <circle cx="332" cy="332" r="10" opacity="0.8"/>
  </g>

  <!-- Connection lines between nodes -->
  <g stroke="url(#grad1)" stroke-width="2" opacity="0.4">
    <line x1="190" y1="180" x2="322" y2="180"/>
    <line x1="332" y1="190" x2="332" y2="322"/>
    <line x1="322" y1="332" x2="190" y2="332"/>
    <line x1="180" y1="322" x2="180" y2="190"/>
  </g>
</svg>
